<?xml version="1.0" encoding="utf-8"?>
<!-- Generator: Adobe Illustrator 27.0.0, SVG Export Plug-In . SVG Version: 6.00 Build 0)  -->
<svg version="1.1" id="Layer_1" xmlns="http://www.w3.org/2000/svg" xmlns:xlink="http://www.w3.org/1999/xlink" x="0px" y="0px"
	 viewBox="0 0 448 512" style="enable-background:new 0 0 448 512;" xml:space="preserve">
<style type="text/css">
	.st0{fill:#FFFFFF;}
</style>
<path class="st0" d="M288,32c-17.7,0-32,14.3-32,32s14.3,32,32,32h50.7L169.4,265.4c-12.5,12.5-12.5,32.8,0,45.3s32.8,12.5,45.3,0
	L384,141.3V192c0,17.7,14.3,32,32,32s32-14.3,32-32V64c0-17.7-14.3-32-32-32H288z M80,64C35.8,64,0,99.8,0,144v256
	c0,44.2,35.8,80,80,80h256c44.2,0,80-35.8,80-80v-80c0-17.7-14.3-32-32-32s-32,14.3-32,32v80c0,8.8-7.2,16-16,16H80
	c-8.8,0-16-7.2-16-16V144c0-8.8,7.2-16,16-16h80c17.7,0,32-14.3,32-32s-14.3-32-32-32H80z"/>
</svg>
