<?xml version="1.0" encoding="utf-8"?>
<!-- Generator: Adobe Illustrator 27.0.0, SVG Export Plug-In . SVG Version: 6.00 Build 0)  -->
<svg version="1.1" xmlns="http://www.w3.org/2000/svg" xmlns:xlink="http://www.w3.org/1999/xlink" x="0px" y="0px"
	 viewBox="0 0 282.5 280.2" style="enable-background:new 0 0 282.5 280.2;" xml:space="preserve">
<style type="text/css">
	.st0{clip-path:url(#SVGID_00000155825051305802210510000003059540439766221967_);}
	.st1{fill:#FFFFFF;}
	.st2{fill-rule:evenodd;clip-rule:evenodd;fill:#FFFFFF;}
	.st3{fill:#FFFFFF;stroke:#FFFFFF;}
	.st4{fill:none;stroke:#FFFFFF;}
</style>
<g id="Layer_2">
</g>
<g id="Layer_1">
	<g>
		<g>
			<defs>
				<rect id="SVGID_1_" x="-46.6" y="-47.9" width="1234" height="400"/>
			</defs>
			<clipPath id="SVGID_00000018919491045676999290000013807723766224972420_">
				<use xlink:href="#SVGID_1_"  style="overflow:visible;"/>
			</clipPath>
			<g style="clip-path:url(#SVGID_00000018919491045676999290000013807723766224972420_);">
				<path class="st1" d="M312.7,112.1V32.5h15.5V112L312.7,112.1L312.7,112.1z M401.2,112.1V59.9l-20.4,38.9h-8.6l-20.4-38.9v52.2
					h-15.5V32.5h16.6l23.5,45.2l23.7-45.2h16.5V112L401.2,112.1L401.2,112.1z M424.9,112.1V32.5h33.7c3.7,0,7,0.7,10.1,2.2
					s5.7,3.5,8,6s4.1,5.4,5.4,8.5s1.9,6.3,1.9,9.6c0,4.5-1,8.7-3.1,12.8s-5,7.3-8.6,9.9c-3.7,2.5-8,3.8-13,3.8h-18.8V112
					L424.9,112.1L424.9,112.1z M440.3,71.9h17.9c1.9,0,3.5-0.5,5-1.6c1.5-1,2.7-2.5,3.6-4.5s1.3-4.3,1.3-6.8c0-2.8-0.5-5.1-1.6-7.1
					c-1-1.9-2.3-3.4-3.9-4.4s-3.3-1.5-5.2-1.5h-17.2v25.9H440.3z M541.5,98.5v13.6h-55.2V32.5h54.2v13.6h-38.8v19.2h33.5v12.5h-33.5
					v20.7H541.5z M545.1,112.1V32.5h35.2c3.7,0,7,0.7,10.1,2.2s5.8,3.5,8.1,6s4.1,5.4,5.3,8.5c1.3,3.1,1.9,6.3,1.9,9.6
					c0,3.4-0.6,6.6-1.8,9.7c-1.1,3.1-2.8,5.7-4.9,8.1s-4.7,4.1-7.6,5.4l18.1,29.9h-17L576,85.4h-15.5v26.7
					C560.5,112.1,545.1,112.1,545.1,112.1z M560.6,71.9H580c1.9,0,3.7-0.6,5.2-1.7c1.5-1.2,2.7-2.8,3.6-4.7c0.9-1.9,1.3-4.1,1.3-6.5
					c0-2.5-0.5-4.7-1.6-6.6c-1-1.9-2.4-3.5-4-4.6s-3.3-1.7-5.2-1.7h-18.7V71.9z M611.2,112.1V32.5h15.5V112L611.2,112.1L611.2,112.1
					z M656.5,32.5h15.7l29.2,79.5h-15.9l-7.4-19.8h-27.8L643,112h-15.9L656.5,32.5z M675.3,81.4l-11-32.8l-11.4,32.8H675.3z
					 M701.7,112.1V32.5h15.5v66h40.5v13.6H701.7z M367.8,222.9v5.2h-53v-79.5h52v5.2h-46.3V185H361v4.9h-40.4v33L367.8,222.9
					L367.8,222.9z M380.7,159.2v68.9H375v-79.5h4.7l55.4,70v-70h5.7v79.5h-5.6L380.7,159.2z M508.8,153.7h-29.1v74.4H474v-74.4
					h-29.1v-5.2h64v5.2H508.8z M512.8,228.1v-79.5h33c3.4,0,6.5,0.7,9.3,2.1c2.8,1.4,5.3,3.3,7.3,5.7c2.1,2.3,3.7,4.9,4.8,7.8
					c1.2,2.9,1.8,5.9,1.8,9c0,4-0.8,7.7-2.4,11.1c-1.6,3.4-3.8,6.3-6.6,8.6s-6,3.7-9.7,4.3l19.8,30.9h-6.6l-19.3-30h-25.8v30
					L512.8,228.1L512.8,228.1z M518.5,192.8h27.9c3.4,0,6.4-0.9,9-2.8s4.5-4.3,5.8-7.3c1.4-3,2.1-6.2,2.1-9.5c0-3.4-0.8-6.6-2.5-9.5
					c-1.6-3-3.7-5.4-6.4-7.2c-2.6-1.9-5.6-2.8-8.8-2.8h-27.1V192.8z M630.1,222.9v5.2h-53v-79.5h52v5.2h-46.3V185h40.4v4.9h-40.4v33
					L630.1,222.9L630.1,222.9z M637.3,228.1v-79.5H670c3.4,0,6.4,0.7,9.2,2.1c2.8,1.4,5.3,3.3,7.4,5.7c2.1,2.3,3.7,4.9,4.8,7.8
					c1.2,2.9,1.8,5.9,1.8,9c0,4.3-1,8.3-2.9,12.1c-1.9,3.7-4.5,6.8-7.8,9.2s-7.2,3.6-11.8,3.6H643v30L637.3,228.1L637.3,228.1z
					 M643,192.8h27.4c3.5,0,6.5-0.9,9.1-2.8c2.5-1.9,4.5-4.3,5.8-7.3s2-6.2,2-9.5c0-3.5-0.8-6.7-2.5-9.6c-1.6-3-3.7-5.4-6.4-7.2
					c-2.6-1.8-5.5-2.7-8.7-2.7H643V192.8z M698.4,228.1v-79.5h33c3.4,0,6.5,0.7,9.3,2.1c2.8,1.4,5.3,3.3,7.3,5.7
					c2.1,2.3,3.7,4.9,4.8,7.8c1.2,2.9,1.8,5.9,1.8,9c0,4-0.8,7.7-2.4,11.1c-1.6,3.4-3.8,6.3-6.6,8.6s-6,3.7-9.7,4.3l19.8,30.9h-6.6
					l-19.3-30H704v30L698.4,228.1L698.4,228.1z M704.2,192.8H732c3.4,0,6.4-0.9,9-2.8s4.5-4.3,5.8-7.3c1.4-3,2.1-6.2,2.1-9.5
					c0-3.4-0.8-6.6-2.5-9.5c-1.6-3-3.7-5.4-6.4-7.2c-2.6-1.9-5.6-2.8-8.8-2.8h-27.1v39.1H704.2z M815.8,222.9v5.2h-53v-79.5h52v5.2
					h-46.3V185h40.4v4.9h-40.4v33L815.8,222.9L815.8,222.9z M828.7,159.2v68.9H823v-79.5h4.7l55.4,70v-70h5.7v79.5h-5.6L828.7,159.2
					z M954.2,222.9v5.2h-53v-79.5h52v5.2h-46.3V185h40.4v4.9h-40.4v33L954.2,222.9L954.2,222.9z M993.4,228.6
					c-6.3,0-11.6-1.1-15.9-3.4c-4.3-2.2-7.7-5.3-10.2-9.1c-2.5-3.9-4.4-8.2-5.5-13s-1.7-9.7-1.7-14.7v-40h5.7v40
					c0,4.3,0.5,8.6,1.4,12.8s2.3,8,4.4,11.3c2.1,3.3,4.9,5.9,8.4,7.8c3.6,1.9,8,2.9,13.3,2.9c5.4,0,9.8-1,13.3-3
					c3.6-2,6.4-4.7,8.4-8c2.1-3.4,3.6-7.1,4.4-11.2c0.9-4.2,1.3-8.4,1.3-12.7v-40h5.7v40c0,5.3-0.6,10.4-1.8,15.2
					c-1.1,4.8-3,9-5.6,12.8s-6,6.7-10.2,8.8C1004.7,227.5,999.5,228.6,993.4,228.6z M1037.6,228.1v-79.5h33c3.4,0,6.5,0.7,9.3,2.1
					c2.8,1.4,5.3,3.3,7.3,5.7c2.1,2.3,3.7,4.9,4.8,7.8c1.2,2.9,1.8,5.9,1.8,9c0,4-0.8,7.7-2.3,11.1c-1.6,3.4-3.8,6.3-6.6,8.6
					c-2.8,2.3-6,3.7-9.7,4.3l19.8,30.9h-6.6l-19.3-30h-25.8v30L1037.6,228.1L1037.6,228.1z M1043.3,192.8h27.9c3.4,0,6.4-0.9,9-2.8
					s4.5-4.3,5.8-7.3c1.4-3,2.1-6.2,2.1-9.5c0-3.4-0.8-6.6-2.5-9.5c-1.6-3-3.7-5.4-6.4-7.2c-2.6-1.9-5.6-2.8-8.8-2.8h-27.1V192.8z
					 M1148.2,161.8c-1.3-1.4-2.7-2.7-4.3-3.7c-1.6-1.1-3.2-2-5-2.7s-3.7-1.3-5.8-1.7c-2.1-0.4-4.3-0.6-6.7-0.6
					c-7.8,0-13.4,1.5-17,4.5c-3.5,2.9-5.3,6.9-5.3,11.9c0,3.4,0.8,6,2.3,8.1c1.6,1.9,4.2,3.5,7.6,4.7s7.9,2.4,13.3,3.5
					c5.8,1.2,10.7,2.6,14.9,4.3c4.2,1.6,7.4,3.7,9.6,6.5c2.3,2.8,3.5,6.5,3.5,11.2c0,3.5-0.7,6.6-2,9.3c-1.3,2.6-3.3,4.8-5.8,6.5
					s-5.6,3-9.1,3.9c-3.4,0.9-7.3,1.3-11.5,1.3c-4.1,0-8-0.4-11.8-1.3c-3.7-0.9-7.2-2.2-10.5-3.9s-6.3-3.9-9.2-6.6l3-4.6
					c1.6,1.8,3.5,3.4,5.5,4.8c2.1,1.3,4.3,2.5,6.7,3.5c2.5,1,5.1,1.8,7.8,2.4c2.8,0.5,5.6,0.8,8.6,0.8c7,0,12.4-1.3,16.2-3.8
					c4-2.6,5.9-6.5,5.9-11.5c0-3.5-0.9-6.3-2.7-8.5c-1.8-2.2-4.5-3.9-8.3-5.3c-3.7-1.4-8.4-2.7-14-3.9s-10.4-2.5-14.3-4
					s-6.8-3.5-8.8-6c-1.9-2.5-2.9-6-2.9-10.3c0-4.8,1.2-8.8,3.5-12.1c2.4-3.4,5.7-5.9,10-7.6c4.2-1.7,9.1-2.6,14.7-2.6
					c3.4,0,6.6,0.3,9.5,1c3,0.7,5.7,1.7,8.2,3.1c2.5,1.3,4.9,3.1,7.1,5.2L1148.2,161.8z"/>
				<path class="st2" d="M140.4,262.1c67.4,0,122-54.6,122-122s-54.6-122-122-122s-122,54.6-122,122S73,262.1,140.4,262.1z
					 M140.4,279.1c76.8,0,139-62.2,139-139s-62.2-139-139-139s-139,62.2-139,139S63.7,279.1,140.4,279.1z"/>
				<path class="st3" d="M127.6,86.3l11.6-5.6c1-0.5,1.7-1.5,1.7-2.7V56.6c0,3-8.8,14.7-17,24.9C121.8,84,124.7,87.7,127.6,86.3z"/>
				<path class="st3" d="M154.8,86.4l-12.2-5.8c-1-0.5-1.7-1.6-1.7-2.7V56.6c0,3,9.1,14.7,17.6,25C160.6,84.1,157.7,87.8,154.8,86.4
					z"/>
				<path class="st1" d="M87.3,267c41-2.3,52.2-156.2,53.6-232.8v244C115.3,277.2,93.4,270.6,87.3,267z"/>
				<path class="st1" d="M73.7,258.8c62-34.7,60.6-185.3,60.1-188.6c0,58.3-27.7,107.9-46.5,131.1c-15,18.5-30.4,24-36.2,24.4v12.8
					L73.7,258.8z"/>
				<path class="st1" d="M194.4,267c-41-2.3-52.2-156.2-53.6-232.8v244C166.4,277.2,188.3,270.6,194.4,267z"/>
				<path class="st1" d="M208.1,258.8C146,224,147.4,73.5,147.9,70.2c0,58.3,27.7,107.9,46.5,131.1c15,18.5,30.4,24,36.2,24.4v12.8
					L208.1,258.8z"/>
				<path class="st2" d="M89,267.3c3.5,1.7,9.8,3.8,17.9,5.7c9.3,2.2,20.9,4.1,33.5,4.6V65.5c-1.6,34.8-4.8,76.5-11,113
					c-4,24.2-9.3,46.1-16.2,62.1c-3.4,8-7.3,14.6-11.5,19.2C97.8,264,93.6,266.6,89,267.3z M141.4,65.5c1.6,34.8,4.8,76.5,11,113
					c4,24.2,9.3,46.1,16.2,62.1c3.4,8,7.3,14.6,11.5,19.2c3.8,4.2,8.1,6.8,12.7,7.5c-3.5,1.7-9.8,3.8-17.9,5.7
					c-9.3,2.2-20.9,4.1-33.5,4.6V65.5z M128.4,178.4c8.1-48.3,11.2-105.9,11.9-144.2h1c0.7,38.3,3.9,95.9,11.9,144.2
					c4,24.2,9.3,46,16.1,61.9c3.4,7.9,7.2,14.4,11.4,18.9s8.7,7.1,13.7,7.4l1.7,0.1l-1.4,0.8c-3.1,1.8-10.2,4.4-19.6,6.6
					c-9.5,2.2-21.4,4.1-34.2,4.6l0,0l0,0c-12.8-0.5-24.7-2.4-34.2-4.6c-9.4-2.2-16.5-4.8-19.6-6.6l-1.4-0.8l1.7-0.1
					c5-0.3,9.5-2.9,13.7-7.4s8-11,11.4-18.9C119.1,224.4,124.4,202.6,128.4,178.4z M109.8,215.3c-8.6,19.1-20.2,35.1-35.8,43.9
					l-0.3,0.2l-23-20.7v-13.5h0.5c5.6-0.4,20.9-5.8,35.8-24.2c18.7-23.1,46.4-72.6,46.4-130.8l1-0.1c0,0.2,0.1,1.1,0.1,2.3
					c0,1.3,0,3.1,0,5.4c0,4.5-0.2,10.8-0.6,18.4c-0.8,15.1-2.5,35.4-6.2,56.6C124,174,118.4,196.2,109.8,215.3z M133,92.2
					c-0.1,1.3-0.1,2.6-0.2,3.9c-0.8,15.1-2.5,35.3-6.2,56.5s-9.3,43.3-17.8,62.3c-8.5,18.9-19.9,34.6-35.1,43.3l-22.1-19.9v-12.1
					c6.3-0.7,21.3-6.4,36.1-24.5C104.1,181.3,127.3,140.9,133,92.2z M208,258.1l22.1-19.9v-12.1c-6.3-0.7-21.3-6.4-36.1-24.5
					c-16.4-20.2-39.7-60.7-45.3-109.4c0.1,1.3,0.1,2.6,0.2,3.9c0.8,15.1,2.5,35.3,6.2,56.5s9.3,43.3,17.8,62.3
					C181.4,233.8,192.8,249.5,208,258.1z M147.3,72.4c0-1.3,0.1-2.1,0.1-2.3l1,0.1c0,58.2,27.7,107.7,46.4,130.8
					c15,18.4,30.2,23.8,35.8,24.2h0.5v13.5l-23,20.7l-0.3-0.2c-15.6-8.8-27.2-24.8-35.8-43.9s-14.2-41.3-17.9-62.5
					s-5.4-41.5-6.2-56.6c-0.4-7.6-0.5-13.9-0.6-18.4C147.3,75.5,147.3,73.7,147.3,72.4z"/>
				<path class="st3" d="M137.8,83.4l1.1-3.2c0.1-0.4,0.5-0.7,0.9-0.7h1h1c0.4,0,0.8,0.3,0.9,0.7l1.1,3.2c0.2,0.6-0.3,1.3-0.9,1.3
					h-4.2C138.1,84.7,137.6,84.1,137.8,83.4z"/>
				<path class="st3" d="M130.8,86l1.1-3.2c0.1-0.4,0.5-0.7,0.9-0.7h2c0.4,0,0.8,0.3,0.9,0.7l1.1,3.2c0.2,0.6-0.3,1.3-0.9,1.3h-4.2
					C131.1,87.3,130.6,86.7,130.8,86z"/>
				<path class="st3" d="M144.8,86l1.1-3.2c0.1-0.4,0.5-0.7,0.9-0.7h2c0.4,0,0.8,0.3,0.9,0.7l1.1,3.2c0.2,0.6-0.3,1.3-0.9,1.3h-4.2
					C145.1,87.3,144.6,86.7,144.8,86z"/>
				<path class="st1" d="M130.4,77c1.3-42.3,7.8-50.4,10.6-50.7v43.2C137.2,88.5,130.3,81.4,130.4,77z"/>
				<path class="st1" d="M130.4,77c1.3-42.3,7.8-50.4,10.6-50.7v43.2C137.2,88.5,130.3,81.4,130.4,77z"/>
				<path class="st1" d="M151.6,77c-1.3-42.3-7.8-50.4-10.6-50.7v43.2C144.8,88.5,151.7,81.4,151.6,77z"/>
				<path class="st1" d="M151.6,77c-1.3-42.3-7.8-50.4-10.6-50.7v43.2C144.8,88.5,151.7,81.4,151.6,77z"/>
				<path class="st4" d="M141,26.3c-2.8,0.3-9.3,8.4-10.6,50.7c-0.1,4.4,6.8,11.4,10.6-7.5 M141,26.3v43.2 M141,26.3
					c2.8,0.3,9.3,8.4,10.6,50.7c0.1,4.3-6.8,11.4-10.6-7.5"/>
			</g>
		</g>
	</g>
</g>
</svg>
